<svg fill="#fff" height="800" width="800" xmlns="http://www.w3.org/2000/svg" viewBox="0 0 512.003 512.003"><path d="M262.092 433.569l-12.256-84.636-34.179 86.371.708 4.886c1.83 12.631 13.552 21.383 26.174 19.553 12.628-1.828 21.383-13.547 19.553-26.174z"/><circle cx="81.299" cy="94.282" r="42.494"/><path d="M239.126 291.34a23.102 23.102 0 00-19.086-10.087h-.068c-32.006.093-15.664-.363-74.175 2.26-7.341.329-12.533 2.503-19.109-.589-5.078-2.386-8.975-7.856-11.546-13.278-10.883-21.856-31.849-68.243-31.849-68.243l45.67 56.822a19.228 19.228 0 0016.004 7.376l.027-.001 66.554-2.983c10.413-.467 18.852-9.317 18.37-20.094-.477-10.624-9.468-18.853-20.094-18.371l-56.802 2.545-39.72-49.418 27.502 21.055-2.056-17.701a32.239 32.239 0 00-36.019-28.27L73.3 156.035c-8.539 1.067-16.297 5.503-21.548 12.321s-7.557 15.453-6.406 23.98l14.623 108.36a32.239 32.239 0 0012.466 21.375 32.131 32.131 0 005.998 3.587H59.051L31.576 185.89c-1.697-8.636-10.079-14.258-18.71-12.564-8.637 1.697-14.261 10.075-12.564 18.711l30.004 152.635a15.936 15.936 0 0015.637 12.863h2.868l-34.027 88.231c-2.111 5.475.615 11.624 6.089 13.735 5.46 2.109 11.62-.605 13.735-6.089l36.976-95.878h63.671l8.045 20.862 8.255-20.862 11.836-29.911 22.62-.066-39.896 100.823c-4.695 11.863 1.117 25.287 12.981 29.981 11.873 4.697 25.291-1.124 29.981-12.982l52.442-132.525a23.094 23.094 0 00-2.393-21.514zm242.041-86.362a21.243 21.243 0 00-15.144-6.189l-19.545.14a21.228 21.228 0 00-4.325.484l-35.339-27.952-7.183-61.74c-.81-6.963-7.104-11.946-14.07-11.138-6.96.81-11.947 7.108-11.137 14.069l7.793 66.963a12.696 12.696 0 004.732 8.487l38.504 30.456c-.113 1.491-.119-1.415.495 37.578 6.159-16.232 21.648-27.379 39.652-27.379 7.701 0 15.231 2.13 21.784 6.072l.04-14.734a21.255 21.255 0 00-6.257-15.117z"/><circle cx="451.985" cy="158.606" r="31.714"/><circle cx="368.631" cy="228.544" r="31.713"/><path d="M441.251 305.753a42.164 42.164 0 01-14.812-18.496l.198 12.596-22.617 7.511.048-17.338a21.25 21.25 0 00-21.401-21.305l-19.545.14a21.19 21.19 0 00-7.541 1.465l-24.061-19.032-7.183-61.742c-.81-6.96-7.103-11.951-14.07-11.136-6.96.81-11.947 7.108-11.137 14.07l7.791 66.964a12.691 12.691 0 004.732 8.485l30.401 24.046.318 20.175 26.33-26.728-25.334 41.753-37.332 3.251c-7.01.61-12.148 6.794-11.54 13.741.575 6.607 6.116 11.589 12.626 11.589.834 0-2.542.269 44.857-3.858l.018-.001c.013.006.014-.001.02-.002l.019-.001c.004-.002.008.003.016-.002a12.672 12.672 0 009.755-6.185l24.652-40.629-13.163 47.166c-.946 3.39-1.613 7.717-4.527 9.073l-54.22 18.004a19.59 19.59 0 00-13.217 21.804 19.589 19.589 0 0019.415 16.53h75.467c5.649-5.278 10.895-6.639 15.749-8.251-6.211.54-6.519.595-7.909.595-12.73 0-23.162-9.57-24.265-22.244-1.079-12.187 6.755-25.074 24.085-26.581l.037-13.463c.066 0 .13.009.196.009h23.401l-.229-14.542c-.138-8.721 3.28-17.3 9.377-23.539a32.253 32.253 0 014.595-3.892z"/><path d="M496.776 429.764h-12.4l5.824-1.934c.024-.008.047-.019.071-.027 7.025-2.372 11.141-9.385 10.226-16.381.471 0 .5-78.369.501-78.84.033-11.936-9.729-21.306-21.246-21.306h-.153l-19.544.139c-11.767.088-21.279 9.757-21.093 21.582l.342 21.713 26.331-26.729-25.335 41.754-37.332 3.251c-7.023.611-12.152 6.814-11.539 13.741.597 6.867 6.677 12.159 13.741 11.54l43.811-3.816a12.67 12.67 0 009.759-6.189l24.649-40.624-13.162 47.165c-.946 3.391-1.502 7.8-4.528 9.075-59.211 19.659-57.225 18.31-61.526 22.354-.048.044-.101.086-.149.13-4.687 4.496-6.778 11.029-5.761 17.328 1.543 9.521 9.68 16.524 19.415 16.524h79.098c8.411 0 15.225-6.819 15.225-15.226 0-8.406-6.814-15.224-15.225-15.224zm-31.177-190.385h-.007c-17.741 0-31.75 14.414-31.75 31.677-.001 19.564 17.406 34.308 36.506 31.391 15.643-2.39 26.928-15.859 26.929-31.309.002-17.635-14.327-31.759-31.678-31.759z"/></svg>