<svg fill="#fff" height="800" width="800" xmlns="http://www.w3.org/2000/svg" viewBox="0 0 511.999 511.999"><path d="M247.07 323.803l-23.142-14.656a24.413 24.413 0 01-3.526-2.735v180.695c0 13.747 11.144 24.891 24.891 24.891s24.891-11.144 24.891-24.891V325.462a24.462 24.462 0 01-23.114-1.659zm54.172-69.931l-17.674 56.541c-1.177 3.766-3.267 7.159-5.999 9.917v166.777c0 13.747 11.144 24.891 24.891 24.891s24.891-11.144 24.891-24.891V257.978l-26.109-4.106zM234.937 68.481c4.648 17.303 20.435 30.044 39.206 30.044 22.423 0 40.601-18.178 40.601-40.601s-18.178-40.601-40.601-40.601c-18.771 0-34.559 12.741-39.207 30.045-5.745-9.713-18.227-13.076-28.083-7.482l-83.324 47.323a20.742 20.742 0 004.407 37.941l92.707 26.606v116.811l23.608-37.125a33.898 33.898 0 01-3.754-21.605c1.469-9.339 6.603-17.189 13.705-22.319a21.472 21.472 0 013.264-9.66l42.777-67.546h-75.485l-38.185-11.199 40.769-23.155a20.594 20.594 0 007.595-7.477zm33.912 180.296a33.885 33.885 0 01-16.217-7.242l-25.744 40.483c-3.55 5.606-1.884 13.03 3.722 16.58l23.142 14.656c6.657 4.216 15.536.984 17.897-6.566l17.123-54.777-19.923-3.134zM394.745 1.411a9.082 9.082 0 00-12.533 2.814l-7.297 11.522-6.714-4.252a9.083 9.083 0 00-9.72 15.347l6.714 4.252-95.14 150.225a34.104 34.104 0 019.376.167l29.884 4.7.011-.036 52.984-83.662a9.083 9.083 0 00-2.813-12.533c-3.309-2.096-7.443-1.776-10.375.468l48.436-76.48a9.08 9.08 0 00-2.813-12.532z"/><path d="M374.073 157.589c-.06-11.998-4.616-22.96-12.05-31.306l-29.36 46.36.087 17.226.068 13.491-55.453-8.722c-11.316-1.78-21.934 5.952-23.714 17.268-1.78 11.317 5.951 21.934 17.268 23.714l79.541 12.51c12.631 1.988 24.029-7.832 23.966-20.596l-.353-69.945z"/></svg>