<svg fill="#fff" xmlns="http://www.w3.org/2000/svg" width="800" height="800" viewBox="0 0 245 256"><path d="M94.338 47.137v2.452c0 15.611 12.654 28.265 28.265 28.265s28.265-12.654 28.265-28.265v-2.452h-56.53zm67.568-13.811v7.881H83.094v-7.881h5.517c1.058-13.06 9.469-24.039 21.088-28.794v16.972h4.926V2.942a34.226 34.226 0 0115.76-.044v18.606h4.926V4.448c11.722 4.711 20.221 15.743 21.285 28.878h5.31zm74.7 100.71c-3.92-3.75-9.073-5.689-14.507-5.445-10.552.466-18.817 9.328-18.817 20.177v11.643h-9.852v-39.406c0-19.443-16.309-35.016-35.676-35.016h-7.659l-20.7 34.031-2.955-25.936 2.955-8.171h-13.792l2.955 8.171-2.955 25.936-20.688-34.032h-7.67c-19.443 0-35.676 15.649-35.676 35.016v39.406h-9.852v-11.65c0-10.849-8.265-19.712-18.816-20.177-5.43-.236-10.586 1.694-14.507 5.446-3.923 3.753-6.083 8.81-6.083 14.238v85.469h.008c-.15 5.308 1.776 10.327 5.445 14.169 3.755 3.931 8.815 6.096 14.25 6.096h200.971c5.435 0 10.496-2.165 14.25-6.097 3.668-3.841 5.594-8.858 5.446-14.164l.007-85.466c0-5.429-2.16-10.484-6.082-14.238zm-71.745-6.136a2.955 2.955 0 012.955 2.955v29.555h-5.911v-29.555a2.957 2.957 0 012.956-2.955zm-87.678 2.956a2.955 2.955 0 015.91 0v29.555h-5.911v-29.555zm-66.991 17.41c0-3.257 1.296-6.291 3.651-8.543 2.221-2.126 5.052-3.449 8.711-3.267 6.22.309 11.282 5.794 11.282 12.304v69.77c-3.648-2.751-8.099-4.129-12.748-3.916-4.058.187-7.821 1.641-10.896 3.969v-70.317zm221.344 94.194a11.72 11.72 0 01-8.551 3.659H22.014a11.718 11.718 0 01-8.551-3.659c-2.251-2.357-3.409-5.457-3.259-8.727.278-6.028 5.217-10.968 11.246-11.246 3.276-.146 6.37 1.006 8.727 3.259a11.72 11.72 0 013.659 8.551h7.881v-66.005h9.852v26.599c0 6.81 5.997 11.822 12.807 11.822s12.807-5.012 12.807-11.822v-26.599h90.634v26.599c0 6.81 5.997 12.807 12.807 12.807 6.81 0 12.807-5.997 12.807-12.807v-26.599h9.852v66.005h7.881c0-3.261 1.3-6.298 3.659-8.551 2.357-2.252 5.442-3.412 8.727-3.259 6.028.277 10.968 5.217 11.246 11.246.15 3.27-1.008 6.37-3.26 8.727zm3.271-23.876c-3.075-2.328-6.445-3.991-11.834-3.991-4.31 0-8.407 1.372-11.809 3.937v-69.762c0-6.51 5.061-12.03 11.282-12.304 3.261-.143 6.358 1.015 8.711 3.266a11.721 11.721 0 013.65 8.543v70.311z"/></svg>