<svg width="193" height="180" fill="none" xmlns="http://www.w3.org/2000/svg"><path fill-rule="evenodd" clip-rule="evenodd" d="M67.036 145.891a18.13 18.13 0 0012.679-5.537l-3.233-5.769a11.793 11.793 0 01-13.105 4.659 11.791 11.791 0 1112.83-18.331l3.212-5.726a17.357 17.357 0 00-12.235-5.22 17.961 17.961 0 00-.211 35.924h.063z" fill="#003770"/><path d="M107.989 144.897h7.163l-10.523-18.363 9.53-16.545h-7.227l-8.495 14.855-6.212-.042-.064-14.813h-6.783l.042 34.908h6.805v-14.073l7.713-.021 8.051 14.094z" fill="#003770"/><path d="M158.218 127.633c0-10.566-6.931-16.8-19.188-17.476h-6.233c-12.278.676-19.251 6.91-19.251 17.476 0 10.566 6.973 16.736 19.251 17.433h6.233c12.257-.57 19.188-6.931 19.188-17.433zm-19.188 11.643v-23.244c8.199.634 12.679 4.522 12.679 11.537 0 7.016-4.374 10.968-12.679 11.707zm-18.87-11.601c0-7.079 4.226-10.904 12.679-11.601v23.202c-8.072-.739-12.679-4.564-12.679-11.601zm64.873-17.518c-3.423 6.34-6.339 12.172-10.185 18.723l-10.143-18.723h-6.931l13.524 24.999c-1.479 2.282-3.17 4.543-6.191 4.543a9.706 9.706 0 01-1.987-.254l3.064 5.579c4.015 0 7.523-1.522 10.566-7.121l15.172-27.746h-6.889z" fill="#003770"/><path fill-rule="evenodd" clip-rule="evenodd" d="M1.53 70.79a50.292 50.292 0 0032.288 18.173c-.401.422-.74 1.035-1.057 1.416a43.066 43.066 0 01-27.048-6.34 72.838 72.838 0 01-4.226-13.207l.042-.042z" fill="#003770"/><path fill-rule="evenodd" clip-rule="evenodd" d="M37.452 84.948a18.703 18.703 0 00-1.817 1.86A54.245 54.245 0 01.345 61.45a71.846 71.846 0 012.346-24.28 62.36 62.36 0 0034.761 47.778z" fill="#003770"/><path fill-rule="evenodd" clip-rule="evenodd" d="M43.496 80.109a38.87 38.87 0 00-4.226 3.106C19.237 70.536 8.186 50.25 6.58 26.879A74.108 74.108 0 0128.345 0a70.472 70.472 0 0015.151 80.299v-.19z" fill="#003770"/><path fill-rule="evenodd" clip-rule="evenodd" d="M58.985 14.601c15.32 9.805 36.705 37.53 26.731 62.507-7.987 19.905-24.237 24.871-29.837 28.358-5.6 3.487-16.546 13.482-12.488 28.865-11.75-5.008-15.701-17.074-11.855-28.02 8.558-24.259 27.85-20.666 33.387-53.23 2.473-14.686-2.768-32.52-5.874-38.543l-.064.063zM8.101 89.47c7.01 4 15.307 5.1 23.118 3.064-.233.38-.761 1.395-1.015 1.775a28.104 28.104 0 01-17.919 1.881c-1.648-2.346-2.599-4.226-4.226-6.72H8.1zm6.678 10.248c4.86.671 9.807-.28 14.073-2.704l-.697 1.86a14.792 14.792 0 01-10.44 4.225 20.043 20.043 0 01-2.936-3.317v-.064z" fill="#003770"/><path d="M4.107 165.902a4.23 4.23 0 01-2.113-.507 3.596 3.596 0 01-1.437-1.374 3.821 3.821 0 01.263-4.354c.32-.407.72-.744 1.174-.992a4.511 4.511 0 013.762-.19c.498.21.94.536 1.289.951l-.91.845a2.585 2.585 0 00-1.985-.888 2.727 2.727 0 00-1.395.338 2.69 2.69 0 00-.951.93c-.233.42-.35.894-.338 1.374-.012.473.105.94.338 1.352.226.396.555.725.95.951.431.226.91.342 1.396.338a2.582 2.582 0 001.986-.887l.909.845a3.179 3.179 0 01-1.29.93 4.044 4.044 0 01-1.69.338h.042zm13.483-1.268v1.162h-5.622v-7.502h5.473v1.163h-4.078v1.944h3.613v1.162h-3.613v2.071h4.226zm10.079-2.747c.428.091.815.321 1.099.655a1.8 1.8 0 01.38 1.162 1.862 1.862 0 01-.74 1.543 3.505 3.505 0 01-2.113.549h-3.634v-7.501h3.36a3.292 3.292 0 011.965.507 1.642 1.642 0 01.718 1.437 1.73 1.73 0 01-1.12 1.669l.085-.021zm-3.55-.402h1.86a1.58 1.58 0 001.035-.274.932.932 0 00.359-.782.974.974 0 00-.36-.803 1.587 1.587 0 00-1.035-.275h-1.86v2.134zm2.113 3.233c.993 0 1.48-.38 1.48-1.119 0-.74-.487-1.099-1.48-1.099h-2.113v2.134l2.113.084zm13.714-.084v1.162h-5.642v-7.502h5.494v1.163h-4.1v1.944h3.635v1.162H35.7v2.071h4.247zm8.22-6.339a3.922 3.922 0 011.712.338c.448.187.83.504 1.099.909a2.873 2.873 0 010 2.852 2.49 2.49 0 01-1.1.93 4.235 4.235 0 01-1.71.317h-1.691v2.113H45.08v-7.459h3.085zm0 4.226c.495.041.989-.093 1.395-.38a1.399 1.399 0 00.465-1.099 1.442 1.442 0 00-.465-1.12 2.107 2.107 0 00-1.395-.38H46.54v2.979h1.627zm11.686 3.381a4.23 4.23 0 01-2.114-.507 3.893 3.893 0 01-1.458-5.347 3.799 3.799 0 011.458-1.373 4.477 4.477 0 014.227 0 3.586 3.586 0 011.436 1.373 3.996 3.996 0 010 3.973 3.595 3.595 0 01-1.436 1.374 4.23 4.23 0 01-2.114.507zm0-1.226a2.924 2.924 0 001.352-.338c.394-.222.717-.552.93-.951a2.726 2.726 0 000-2.705 2.372 2.372 0 00-.93-.951 2.686 2.686 0 00-1.352-.338 2.561 2.561 0 00-2.303 1.289 2.875 2.875 0 000 2.705c.226.396.554.725.95.951.416.223.88.339 1.352.338zm11.664-2.43h2.937v1.12h-2.937v-1.12zm13.884.38h-1.395v3.17H82.63v-7.502h1.374v3.128h1.437l2.155-3.128h1.48l-2.558 3.635 2.663 3.867h-1.585l-2.198-3.17zm13.545 1.416h-3.762l-.74 1.754h-1.436l3.38-7.502h1.374l3.381 7.523h-1.458l-.74-1.754v-.021zm-.465-1.077l-1.416-3.297-1.395 3.297h2.81zm12.34-1.078c.429.091.815.321 1.099.655.259.331.393.742.38 1.162.01.298-.053.593-.182.862a1.85 1.85 0 01-.557.681 3.511 3.511 0 01-2.113.549h-3.55v-7.501h3.402a3.337 3.337 0 011.965.507 1.684 1.684 0 01.697 1.437 1.686 1.686 0 01-1.099 1.669l-.042-.021zm-3.634-.402h1.859c.366.028.731-.069 1.036-.274a.912.912 0 00.338-.782.96.96 0 00-.338-.803 1.63 1.63 0 00-1.036-.275h-1.859v2.134zm2.113 3.233c.993 0 1.479-.38 1.479-1.12 0-.739-.486-1.098-1.479-1.098h-2.113v2.134l2.113.084zm10.925-2.092h-1.395v3.17h-1.373v-7.502h1.373v3.128h1.437l2.155-3.128h1.48l-2.557 3.635 2.662 3.867h-1.585l-2.197-3.17zm13.545 1.416h-3.762l-.739 1.754h-1.437l3.381-7.502h1.331l3.381 7.523h-1.458l-.739-1.754.042-.021zm-.465-1.077l-1.416-3.297-1.458 3.297h2.874zm11.348-1.099c.415.119.783.362 1.056.697a1.82 1.82 0 010 2.303 3.18 3.18 0 01-1.183.761 4.828 4.828 0 01-1.606.275 6.342 6.342 0 01-1.501-.211 5.258 5.258 0 01-1.394-.634l.443-1.015c.344.215.713.386 1.099.507.384.117.783.174 1.184.17.491.017.978-.092 1.415-.317a1.039 1.039 0 00.571-.93.825.825 0 00-.423-.74 2.114 2.114 0 00-1.204-.211h-1.754v-1.099h1.754c.343.022.683-.067.972-.254a.823.823 0 00.359-.697.902.902 0 00-.486-.824 2.296 2.296 0 00-1.204-.275 4.36 4.36 0 00-1.036.127 5.418 5.418 0 00-1.014.423l-.444-1.12a5.038 5.038 0 011.226-.465c.422-.1.855-.15 1.289-.148a4.448 4.448 0 011.542.254 2.65 2.65 0 011.12.739c.277.307.427.707.423 1.12.002.347-.101.686-.296.972a2.103 2.103 0 01-.824.634l-.084-.042zm10.037 4.036a4.228 4.228 0 01-2.113-.507 3.592 3.592 0 01-1.437-1.374 3.72 3.72 0 01-.529-1.986 3.937 3.937 0 01.529-1.987 3.74 3.74 0 011.437-1.373 4.522 4.522 0 013.74-.19c.499.21.941.536 1.289.951l-.888.845a2.646 2.646 0 00-2.113-.888 2.726 2.726 0 00-1.394.338 2.69 2.69 0 00-.951.93c-.233.42-.35.894-.338 1.374-.012.473.105.94.338 1.352.226.396.554.725.951.951.43.225.909.342 1.394.338a2.64 2.64 0 002.113-.887l.888.845a3.178 3.178 0 01-1.289.93 4.045 4.045 0 01-1.691.338h.064zm10.629-3.276h-1.395v3.17h-1.373v-7.502h1.373v3.128h1.437l2.156-3.128h1.479l-2.557 3.635 2.642 3.867h-1.564l-2.198-3.17zm8.558-4.332h1.374v5.326l4.036-5.326h1.289v7.502h-1.374v-5.325l-4.015 5.325h-1.31v-7.502zm12.404 0h1.374v5.347l4.057-5.347H193v7.523h-1.289v-5.409l-4.226 5.388h-1.289v-7.502h.084zm3.339-.507a2.297 2.297 0 01-1.458-.38 1.55 1.55 0 01-.507-1.162h.993a.782.782 0 00.254.613c.204.157.461.233.718.211.257.018.512-.057.718-.211a.798.798 0 00.275-.613h.972a1.453 1.453 0 01-.507 1.141c-.425.297-.94.439-1.458.401zM9.348 173.869a2.85 2.85 0 01-1.036 2.345 4.712 4.712 0 01-2.916.93v.803H4.107v-.803a5.01 5.01 0 01-2.937-.93 3.146 3.146 0 010-4.67 4.863 4.863 0 012.937-.951v-.76h1.29v.76a4.842 4.842 0 012.915.951 2.85 2.85 0 011.036 2.325zm-3.952 2.113a3.466 3.466 0 001.944-.634 2.12 2.12 0 00.67-1.543 2.11 2.11 0 00-.67-1.542 3.466 3.466 0 00-1.944-.634v4.416-.063zm-3.909-2.113a1.858 1.858 0 00.676 1.521 3.316 3.316 0 001.944.655v-4.353c-1.754.127-2.62.867-2.62 2.113v.064zm15.341 2.62v1.162h-5.641v-7.502h5.494v1.162h-4.1v1.944h3.635v1.163H12.58v2.071h4.247zm9.382-.022v2.768h-1.288v-1.585h-5.748v1.585h-1.31v-2.768h.317c.465 0 .803-.38.993-1.056.22-.95.34-1.921.36-2.895v-2.388h5.493v6.339h1.184zm-5.451-3.825a14.574 14.574 0 01-.212 2.43c-.062.508-.26.989-.57 1.395h3.803v-5.156h-2.958v1.331h-.063zm12.784 3.847v1.162h-5.642v-7.502h5.494v1.162h-4.1v1.944h3.636v1.163h-3.635v2.071h4.247zm5.029-6.361a3.829 3.829 0 011.691.338c.457.182.848.499 1.12.909a2.872 2.872 0 010 2.853c-.27.416-.661.74-1.12.929a4.205 4.205 0 01-1.69.317h-1.691v2.114h-1.395v-7.46h3.085zm0 4.226a2.11 2.11 0 001.374-.38 1.353 1.353 0 00.486-1.099 1.396 1.396 0 00-.486-1.12 2.114 2.114 0 00-1.373-.38h-1.628v2.979h1.627zm9.975 1.543h-3.74l-.74 1.753H42.63l3.38-7.522h1.374l3.381 7.522h-1.458l-.76-1.753zm-.529-1.078l-1.416-3.297-1.415 3.297h2.831zm10.692-4.691v7.522h-1.373v-6.339h-2.98v1.881a17.592 17.592 0 01-.253 2.557 3.53 3.53 0 01-.655 1.5 1.588 1.588 0 01-1.247.507 4.203 4.203 0 01-.76 0v-1.225a.874.874 0 00.337 0c.423 0 .74-.254.93-.782.22-.799.333-1.623.338-2.452l.106-3.106 5.558-.063zm5.96 2.557a3.107 3.107 0 012.113.591 2.224 2.224 0 01.74 1.796 2.303 2.303 0 01-.804 1.902 3.357 3.357 0 01-2.113.676h-3.38v-7.522h1.373v2.557h2.07zm-.275 3.888c.448.026.89-.109 1.247-.381a1.343 1.343 0 00.443-1.098c0-.909-.57-1.353-1.69-1.353h-1.796v2.832h1.796zm11.559-6.424v7.502h-1.395v-3.212h-3.888v3.212h-1.395v-7.502h1.395v3.085h3.888v-3.085h1.395zm5.874 2.536a3.147 3.147 0 012.113.591 2.12 2.12 0 01.719 1.796 2.28 2.28 0 01-.782 1.902 3.376 3.376 0 01-2.24.676h-3.19v-7.522h1.373v2.557h2.007zm-.296 3.888a1.9 1.9 0 001.268-.381 1.41 1.41 0 00.423-1.098c0-.909-.55-1.353-1.69-1.353h-1.797v2.832h1.796zm4.227-6.445h1.373v7.522h-1.374v-7.522zm3.909 0h1.374v5.346l4.036-5.346h1.31v7.523h-1.374v-5.325l-4.036 5.325h-1.31v-7.523zm3.339-.507a2.393 2.393 0 01-1.458-.38 1.46 1.46 0 01-.486-1.163h.972a.783.783 0 00.253.613 1.327 1.327 0 001.437 0 .741.741 0 00.275-.613h.972a1.331 1.331 0 01-.507 1.141 2.26 2.26 0 01-1.458.402zm18.236.507l-3.275 6.064a3.21 3.21 0 01-1.015 1.205 2.112 2.112 0 01-1.289.401 3.04 3.04 0 01-1.12-.232l.36-1.099c.229.091.472.141.718.148a1.313 1.313 0 001.12-.697v-.19l-2.874-5.6h1.479l2.219 4.416 2.304-4.416h1.373zm8.178.021v7.502h-1.395v-3.212h-3.888v3.212h-1.395v-7.502h1.395v3.085h3.888v-3.085h1.395zm2.493 0h1.374v5.325l4.036-5.325h1.289v7.502h-1.374v-5.325l-4.036 5.325h-1.289v-7.502zm14.137 3.593c.429.091.815.321 1.099.655.259.331.393.742.38 1.162.01.297-.053.593-.182.861a1.842 1.842 0 01-.557.681 3.505 3.505 0 01-2.113.55h-3.55v-7.523h3.338a3.408 3.408 0 011.987.507c.225.164.407.381.529.631.121.251.179.528.168.806.018.359-.079.714-.276 1.015-.198.3-.486.529-.823.655zm-3.508-.402h1.881c.366.025.73-.072 1.035-.275a.904.904 0 00.339-.781.959.959 0 00-.339-.803 1.664 1.664 0 00-1.035-.275h-1.881v2.134zm2.113 3.233c.994 0 1.48-.38 1.48-1.12 0-.739-.486-1.099-1.48-1.099h-2.113v2.219h2.113zm10.46-.084v1.162h-5.621v-7.502h5.473v1.162h-4.078v1.944h3.613v1.163h-3.613v2.071h4.226zm5.03-6.361a3.936 3.936 0 011.711.338c.452.182.836.499 1.099.909a2.73 2.73 0 010 2.853c-.262.415-.646.74-1.099.929a4.199 4.199 0 01-1.711.317h-1.691v2.113h-1.395v-7.459h3.086zm0 4.226c.495.041.988-.093 1.394-.38a1.334 1.334 0 00.465-1.099 1.384 1.384 0 00-.465-1.12 2.111 2.111 0 00-1.394-.38h-1.628v2.979h1.628zm8.473 3.403a4.23 4.23 0 01-2.113-.507 3.605 3.605 0 01-1.437-1.374 3.816 3.816 0 01-.518-1.447 3.817 3.817 0 011.955-3.899 4.23 4.23 0 012.113-.507c.579-.008 1.154.1 1.691.317.496.216.936.541 1.289.951l-.909.845a2.57 2.57 0 00-2.007-.888 2.713 2.713 0 00-1.374.338 2.69 2.69 0 00-.951.93c-.232.42-.349.894-.338 1.374a2.56 2.56 0 001.289 2.303c.424.223.895.339 1.374.338a2.584 2.584 0 002.007-.887l.909.845c-.348.41-.79.729-1.289.93a4.045 4.045 0 01-1.691.338zm4.67-7.608h1.374v5.325l4.036-5.325h1.289v7.502h-1.374v-5.325l-4.036 5.325h-1.289v-7.502zm14.644 1.184h-2.493v6.318h-1.374v-6.318h-2.493v-1.184h6.36v1.184zm7.206 5.156v1.162h-5.621v-7.502h5.473v1.162h-4.078v1.944h3.614v1.163h-3.614v2.071h4.226zm7.396-5.156h-2.493v6.318h-1.374v-6.318h-2.472v-1.184h6.339v1.184z" fill="#003770"/></svg>