<svg aria-hidden="true" style="position:absolute;width:0;height:0" xmlns="http://www.w3.org/2000/svg" overflow="hidden"><defs><symbol id="icon-odnoklassniki" viewBox="0 0 32 32"><path d="M19.34 23.253a15.473 15.473 0 004.8-1.987 2.422 2.422 0 00-2.58-4.097 10.487 10.487 0 01-11.12 0 2.419 2.419 0 00-3.333.753c0 .003 0 .005-.003.007a2.417 2.417 0 00.756 3.333l.003.003c1.473.927 3.096 1.6 4.795 1.984l-4.62 4.62a2.394 2.394 0 00-.037 3.383l.04.04c.459.472 1.08.707 1.699.707.62 0 1.24-.235 1.7-.707l4.561-4.539 4.539 4.541a2.42 2.42 0 003.421-.06 2.42 2.42 0 000-3.36zM16 16.517a8.269 8.269 0 008.26-8.257C24.26 3.707 20.553 0 16 0S7.74 3.707 7.74 8.263A8.265 8.265 0 0016 16.518zm0-11.676a3.424 3.424 0 013.419 3.42A3.422 3.422 0 0116 11.681a3.425 3.425 0 01-3.42-3.419A3.425 3.425 0 0116 4.841z"/></symbol><symbol id="icon-tiktok" viewBox="0 0 32 32"><path d="M16.707.027C18.454 0 20.187.014 21.92 0c.107 2.04.84 4.12 2.333 5.56 1.493 1.48 3.6 2.16 5.653 2.387v5.373c-1.92-.067-3.853-.467-5.6-1.293-.76-.347-1.467-.787-2.16-1.24-.013 3.893.013 7.787-.027 11.667-.107 1.867-.72 3.72-1.8 5.253-1.747 2.56-4.773 4.227-7.88 4.28-1.907.107-3.813-.413-5.44-1.373-2.693-1.587-4.587-4.493-4.867-7.613a24.42 24.42 0 01-.013-1.987 10.004 10.004 0 013.44-6.613c2.213-1.92 5.307-2.84 8.2-2.293.027 1.973-.053 3.947-.053 5.92-1.32-.427-2.867-.307-4.027.493a4.631 4.631 0 00-1.813 2.333c-.28.68-.2 1.427-.187 2.147.32 2.187 2.427 4.027 4.667 3.827 1.493-.013 2.92-.88 3.693-2.147.253-.44.533-.893.547-1.413.133-2.387.08-4.76.093-7.147.013-5.373-.013-10.733.027-16.093z"/></symbol><symbol id="icon-twitter" viewBox="0 0 32 32"><path d="M32 7.075a12.941 12.941 0 01-3.769 1.031 6.601 6.601 0 002.887-3.631 13.21 13.21 0 01-4.169 1.594A6.565 6.565 0 0022.155 4a6.563 6.563 0 00-6.563 6.563c0 .512.056 1.012.169 1.494A18.635 18.635 0 012.23 5.195a6.56 6.56 0 00-.887 3.3 6.557 6.557 0 002.919 5.463 6.565 6.565 0 01-2.975-.819v.081a6.565 6.565 0 005.269 6.437 6.574 6.574 0 01-2.968.112 6.588 6.588 0 006.131 4.563 13.17 13.17 0 01-9.725 2.719 18.568 18.568 0 0010.069 2.95c12.075 0 18.681-10.006 18.681-18.681 0-.287-.006-.569-.019-.85A13.216 13.216 0 0032 7.076z"/></symbol><symbol id="icon-pencil2" viewBox="0 0 32 32"><path d="M12 20l4-2L30 4l-2-2-14 14-2 4zm-2.959 7.097c-.989-2.085-2.052-3.149-4.137-4.137l3.097-8.525 4-2.435 12-12h-6l-12 12-6 20 20-6 12-12V8l-12 12-2.435 4z"/></symbol><symbol id="icon-light-bulb" viewBox="0 0 20 20"><path d="M7.186 19.172c.789.51 1.701.855 2.814.828 1.111.027 2.025-.318 2.814-.828L12.797 17H7.203l-.017 2.172zM12.697 16c0-4.357 4.63-5.848 4.283-10.188-.218-2.738-2.073-5.81-6.98-5.81S3.238 3.074 3.019 5.813C2.672 10.152 7.303 11.643 7.303 16h5.394zM5 6c.207-2.598 2.113-4 5-4s4.654 1.371 4.861 3.969c.113 1.424-.705 2.373-1.809 3.926C12.238 11.041 11.449 12.238 11 14H9c-.449-1.762-1.238-2.959-2.053-4.106C5.844 8.342 4.886 7.424 5 6z"/></symbol><symbol id="icon-document-file-pdf" viewBox="0 0 32 32"><path d="M21 13v-3l-6-7H4.003A2.005 2.005 0 002 5.007v22.985a2 2 0 001.997 2.007h15.005a1.998 1.998 0 001.997-1.991v-2.009h7.993A3.002 3.002 0 0031.999 23v-7.002a2.997 2.997 0 00-3.007-2.999h-7.993zm-1 13v2.007A.997.997 0 0119 29H4c-.545 0-1-.446-1-.995V4.996c0-.54.446-.995.996-.995H14v4.994c0 1.119.895 2.006 1.998 2.006H20v2h-7.993A3.002 3.002 0 009 16v7.002a2.997 2.997 0 003.007 2.999H20zM15 4.5l4.7 5.5h-3.703C15.451 10 15 9.548 15 8.991V4.5zM11.995 14h17.011a2 2 0 011.995 1.992v7.016A1.999 1.999 0 0129.006 25H11.995A2 2 0 0110 23.008v-7.016C10 14.9 10.893 14 11.995 14zM25 19v-2h4v-1h-5v7h1v-3h3v-1h-3zm-13-1v-2h2.995a2 2 0 110 4H13v3h-1v-5zm1-1v2h2.001A.997.997 0 0016 18c0-.552-.443-1-.999-1H13zm5-1h2.995c1.111 0 2.005.898 2.005 2.006v2.988A1.999 1.999 0 0120.995 23H18v-7zm1 1v5h2.001A.997.997 0 0022 21v-3c0-.552-.443-1-.999-1H19z"/></symbol><symbol id="icon-double_arrow" viewBox="0 0 24 24"><path d="M8.484 5.016L13.5 12l-5.016 6.984h-4.5L9 12 3.984 5.016h4.5zm7.032 0L20.485 12l-4.969 6.984h-4.5L15.985 12l-4.969-6.984h4.5z"/></symbol><symbol id="icon-library" viewBox="0 0 34 32"><path d="M32 30v-2h-2V16h2v-2h-6v2h2v12h-6V16h2v-2h-6v2h2v12h-6V16h2v-2h-6v2h2v12H6V16h2v-2H2v2h2v12H2v2H0v2h34v-2h-2zM16 0h2l16 10v2H0v-2L16 0z"/></symbol><symbol id="icon-file-zip" viewBox="0 0 32 32"><path d="M28.681 7.159c-.694-.947-1.662-2.053-2.724-3.116s-2.169-2.03-3.116-2.724C21.229.137 20.448 0 20 0H4.5A2.503 2.503 0 002 2.5v27C2 30.878 3.121 32 4.5 32h23c1.378 0 2.5-1.122 2.5-2.5V10c0-.448-.137-1.23-1.319-2.841zm-4.138-1.702A27.334 27.334 0 0126.811 8H22V3.189a27.334 27.334 0 012.543 2.268zM28 29.5c0 .271-.229.5-.5.5h-23a.507.507 0 01-.5-.5v-27c0-.271.229-.5.5-.5H20v7a1 1 0 001 1h7v19.5z"/><path d="M8 2h4v2H8V2zm4 2h4v2h-4V4zM8 6h4v2H8V6zm4 2h4v2h-4V8zm-4 2h4v2H8v-2zm4 2h4v2h-4v-2zm-4 2h4v2H8v-2zm4 2h4v2h-4v-2zM8 26.5c0 .825.675 1.5 1.5 1.5h5c.825 0 1.5-.675 1.5-1.5v-5c0-.825-.675-1.5-1.5-1.5H12v-2H8v8.5zm6-2.5v2h-4v-2h4z"/></symbol><symbol id="icon-envelop" viewBox="0 0 32 32"><path d="M29 4H3C1.35 4 0 5.35 0 7v20c0 1.65 1.35 3 3 3h26c1.65 0 3-1.35 3-3V7c0-1.65-1.35-3-3-3zM12.461 17.199L4 23.789V8.113l8.461 9.086zM5.512 8h20.976L16 15.875 5.512 8zm7.278 9.553L16 21l3.21-3.447L25.79 26H6.211l6.58-8.447zm6.749-.354L28 8.113v15.676l-8.461-6.59z"/></symbol><symbol id="icon-mobile" viewBox="0 0 32 32"><path d="M23 0H9C7.35 0 6 1.35 6 3v26c0 1.65 1.35 3 3 3h14c1.65 0 3-1.35 3-3V3c0-1.65-1.35-3-3-3zM12 1.5h8v1h-8v-1zM16 30a2 2 0 11-.001-3.999A2 2 0 0116 30zm8-6H8V4h16v20z"/></symbol><symbol id="icon-change" viewBox="0 0 32 32"><path d="M32 12H20l4.485-4.485C22.218 5.249 19.205 4 16 4S9.781 5.248 7.515 7.515C5.249 9.782 4 12.795 4 16s1.248 6.219 3.515 8.485C9.782 26.751 12.795 28 16 28s6.219-1.248 8.485-3.515c.189-.189.371-.384.546-.583l3.01 2.634A15.96 15.96 0 0116 32C7.163 32 0 24.837 0 16S7.163 0 16 0c4.418 0 8.418 1.791 11.313 4.687L32 0v12z"/></symbol><symbol id="icon-search" viewBox="0 0 32 32"><path d="M31.008 27.231l-7.58-6.447c-.784-.705-1.622-1.029-2.299-.998a11.954 11.954 0 002.87-7.787c0-6.627-5.373-12-12-12s-12 5.373-12 12 5.373 12 12 12c2.972 0 5.691-1.081 7.787-2.87-.031.677.293 1.515.998 2.299l6.447 7.58c1.104 1.226 2.907 1.33 4.007.23s.997-2.903-.23-4.007zM12 20a8 8 0 110-16 8 8 0 010 16z"/></symbol><symbol id="icon-tree" viewBox="0 0 32 32"><path d="M30.5 24H30v-6.5c0-1.93-1.57-3.5-3.5-3.5H18v-4h.5c.825 0 1.5-.675 1.5-1.5v-5c0-.825-.675-1.5-1.5-1.5h-5c-.825 0-1.5.675-1.5 1.5v5c0 .825.675 1.5 1.5 1.5h.5v4H5.5C3.57 14 2 15.57 2 17.5V24h-.5c-.825 0-1.5.675-1.5 1.5v5c0 .825.675 1.5 1.5 1.5h5c.825 0 1.5-.675 1.5-1.5v-5c0-.825-.675-1.5-1.5-1.5H6v-6h8v6h-.5c-.825 0-1.5.675-1.5 1.5v5c0 .825.675 1.5 1.5 1.5h5c.825 0 1.5-.675 1.5-1.5v-5c0-.825-.675-1.5-1.5-1.5H18v-6h8v6h-.5c-.825 0-1.5.675-1.5 1.5v5c0 .825.675 1.5 1.5 1.5h5c.825 0 1.5-.675 1.5-1.5v-5c0-.825-.675-1.5-1.5-1.5zM6 30H2v-4h4v4zm12 0h-4v-4h4v4zM14 8V4h4v4h-4zm16 22h-4v-4h4v4z"/></symbol><symbol id="icon-menu" viewBox="0 0 32 32"><path d="M2 6h28v6H2zm0 8h28v6H2zm0 8h28v6H2z"/></symbol><symbol id="icon-eye" viewBox="0 0 32 32"><path d="M16 6C9.021 6 2.972 10.064 0 16c2.972 5.936 9.021 10 16 10s13.027-4.064 16-10c-2.972-5.936-9.021-10-16-10zm7.889 5.303A15.212 15.212 0 0128.559 16a15.223 15.223 0 01-4.67 4.697C21.527 22.204 18.799 23 16 23s-5.527-.796-7.889-2.303A15.212 15.212 0 013.441 16a15.223 15.223 0 015.041-4.925 8 8 0 1015.036 0c.124.074.248.15.371.228zM16 13a3 3 0 11-6 0 3 3 0 016 0z"/></symbol><symbol id="icon-warning" viewBox="0 0 32 32"><path d="M16 2.899l13.409 26.726H2.59L15.999 2.899zM16 0c-.69 0-1.379.465-1.903 1.395L.438 28.617C-.608 30.477.282 32 2.416 32h27.166c2.134 0 3.025-1.522 1.978-3.383L17.901 1.395C17.378.465 16.688 0 15.998 0z"/><path d="M18 26a2 2 0 11-3.999.001A2 2 0 0118 26zm-2-4a2 2 0 01-2-2v-6a2 2 0 114 0v6a2 2 0 01-2 2z"/></symbol><symbol id="icon-play3" viewBox="0 0 32 32"><path d="M6 4l20 12L6 28z"/></symbol><symbol id="icon-circle-right" viewBox="0 0 32 32"><path d="M16 0C7.163 0 0 7.163 0 16s7.163 16 16 16 16-7.163 16-16S24.837 0 16 0zm0 29C8.82 29 3 23.18 3 16S8.82 3 16 3s13 5.82 13 13-5.82 13-13 13z"/><path d="M11.086 22.086l2.829 2.829 8.914-8.914-8.914-8.914-2.828 2.828 6.086 6.086z"/></symbol><symbol id="icon-facebook2" viewBox="0 0 32 32"><path d="M29 0H3C1.35 0 0 1.35 0 3v26c0 1.65 1.35 3 3 3h13V18h-4v-4h4v-2c0-3.306 2.694-6 6-6h4v4h-4c-1.1 0-2 .9-2 2v2h6l-1 4h-5v14h9c1.65 0 3-1.35 3-3V3c0-1.65-1.35-3-3-3z"/></symbol><symbol id="icon-instagram" viewBox="0 0 32 32"><path d="M16 2.881c4.275 0 4.781.019 6.462.094 1.563.069 2.406.331 2.969.55a4.952 4.952 0 011.837 1.194 5.015 5.015 0 011.2 1.838c.219.563.481 1.412.55 2.969.075 1.688.094 2.194.094 6.463s-.019 4.781-.094 6.463c-.069 1.563-.331 2.406-.55 2.969a4.94 4.94 0 01-1.194 1.837 5.02 5.02 0 01-1.837 1.2c-.563.219-1.413.481-2.969.55-1.688.075-2.194.094-6.463.094s-4.781-.019-6.463-.094c-1.563-.069-2.406-.331-2.969-.55a4.952 4.952 0 01-1.838-1.194 5.02 5.02 0 01-1.2-1.837c-.219-.563-.481-1.413-.55-2.969-.075-1.688-.094-2.194-.094-6.463s.019-4.781.094-6.463c.069-1.563.331-2.406.55-2.969a4.964 4.964 0 011.194-1.838 5.015 5.015 0 011.838-1.2c.563-.219 1.412-.481 2.969-.55 1.681-.075 2.188-.094 6.463-.094zM16 0c-4.344 0-4.887.019-6.594.094-1.7.075-2.869.35-3.881.744-1.056.412-1.95.956-2.837 1.85a7.833 7.833 0 00-1.85 2.831C.444 6.538.169 7.7.094 9.4.019 11.113 0 11.656 0 16s.019 4.887.094 6.594c.075 1.7.35 2.869.744 3.881.413 1.056.956 1.95 1.85 2.837a7.82 7.82 0 002.831 1.844c1.019.394 2.181.669 3.881.744 1.706.075 2.25.094 6.594.094s4.888-.019 6.594-.094c1.7-.075 2.869-.35 3.881-.744 1.05-.406 1.944-.956 2.831-1.844s1.438-1.781 1.844-2.831c.394-1.019.669-2.181.744-3.881.075-1.706.094-2.25.094-6.594s-.019-4.887-.094-6.594c-.075-1.7-.35-2.869-.744-3.881a7.506 7.506 0 00-1.831-2.844A7.82 7.82 0 0026.482.843C25.463.449 24.301.174 22.601.099c-1.712-.081-2.256-.1-6.6-.1z"/><path d="M16 7.781c-4.537 0-8.219 3.681-8.219 8.219s3.681 8.219 8.219 8.219 8.219-3.681 8.219-8.219A8.221 8.221 0 0016 7.781zm0 13.55a5.331 5.331 0 110-10.663 5.331 5.331 0 010 10.663zM26.462 7.456a1.919 1.919 0 11-3.838 0 1.919 1.919 0 013.838 0z"/></symbol><symbol id="icon-vk" viewBox="0 0 32 32"><path d="M29 0H3C1.35 0 0 1.35 0 3v26c0 1.65 1.35 3 3 3h26c1.65 0 3-1.35 3-3V3c0-1.65-1.35-3-3-3zm-3.081 22.4l-2.925.044s-.631.125-1.456-.444c-1.094-.75-2.125-2.706-2.931-2.45-.813.256-.788 2.012-.788 2.012s.006.375-.181.575c-.2.219-.6.262-.6.262h-1.306s-2.888.175-5.431-2.475c-2.775-2.887-5.225-8.619-5.225-8.619s-.144-.375.013-.556c.175-.206.644-.219.644-.219l3.131-.019s.294.05.506.206c.175.125.269.369.269.369s.506 1.281 1.175 2.438c1.306 2.256 1.919 2.75 2.362 2.513.644-.35.45-3.194.45-3.194s.012-1.031-.325-1.488c-.262-.356-.756-.463-.969-.488-.175-.025.113-.431.488-.619.563-.275 1.556-.294 2.731-.281.913.006 1.181.069 1.538.15 1.081.262.712 1.269.712 3.681 0 .775-.137 1.863.419 2.219.238.156.825.025 2.294-2.469.694-1.181 1.219-2.569 1.219-2.569s.113-.25.288-.356c.181-.106.425-.075.425-.075l3.294-.019s.988-.119 1.15.331c.169.469-.369 1.563-1.712 3.356-2.206 2.944-2.456 2.669-.619 4.369 1.75 1.625 2.113 2.419 2.175 2.519.712 1.2-.813 1.294-.813 1.294z"/></symbol><symbol id="icon-youtube" viewBox="0 0 32 32"><path d="M31.681 9.6s-.313-2.206-1.275-3.175C29.187 5.15 27.825 5.144 27.2 5.069c-4.475-.325-11.194-.325-11.194-.325h-.012s-6.719 0-11.194.325c-.625.075-1.987.081-3.206 1.356C.631 7.394.325 9.6.325 9.6s-.319 2.588-.319 5.181v2.425c0 2.587.319 5.181.319 5.181s.313 2.206 1.269 3.175c1.219 1.275 2.819 1.231 3.531 1.369 2.563.244 10.881.319 10.881.319s6.725-.012 11.2-.331c.625-.075 1.988-.081 3.206-1.356.962-.969 1.275-3.175 1.275-3.175s.319-2.587.319-5.181v-2.425c-.006-2.588-.325-5.181-.325-5.181zM12.694 20.15v-8.994l8.644 4.513-8.644 4.481z"/></symbol><symbol id="icon-file-word" viewBox="0 0 32 32"><path d="M19.993 14.872h1.382l-1.594 7.068-2.073-9.938h-3.33l-2.41 9.938-1.807-9.938H6.68l3.534 15.996h3.401l2.384-9.46 2.133 9.46h3.136l4.051-15.996h-5.326v2.87z"/><path d="M28.681 7.159c-.694-.947-1.662-2.053-2.724-3.116s-2.169-2.03-3.116-2.724C21.229.137 20.448 0 20 0H4.5A2.503 2.503 0 002 2.5v27C2 30.878 3.121 32 4.5 32h23c1.378 0 2.5-1.122 2.5-2.5V10c0-.448-.137-1.23-1.319-2.841zm-4.138-1.702A27.334 27.334 0 0126.811 8H22V3.189a27.334 27.334 0 012.543 2.268zM28 29.5c0 .271-.229.5-.5.5h-23a.507.507 0 01-.5-.5v-27c0-.271.229-.5.5-.5H20v7a1 1 0 001 1h7v19.5z"/></symbol><symbol id="icon-viber" viewBox="0 0 32 32"><path fill="var(--color1, #665cac)" d="M15.197.003C12.63.038 7.108.459 4.018 3.29 1.725 5.57.923 8.931.83 13.094.75 17.241.657 25.027 8.163 27.149v3.227s-.051 1.293.803 1.56c1.053.333 1.653-.665 2.653-1.732l1.867-2.107c5.133.427 9.067-.559 9.52-.705 1.04-.333 6.908-1.081 7.868-8.869.987-8.041-.48-13.108-3.12-15.401l-.013-.003c-.8-.733-4-3.067-11.16-3.093 0 0-.528-.033-1.384-.021zm.09 2.262c.727-.004 1.173.027 1.173.027 6.053.013 8.948 1.84 9.628 2.453 2.227 1.905 3.371 6.475 2.533 13.189-.8 6.507-5.56 6.92-6.44 7.2-.373.12-3.84.973-8.203.693 0 0-3.252 3.921-4.265 4.935-.16.173-.347.227-.467.2-.173-.04-.227-.253-.213-.547l.027-5.359c-6.361-1.76-5.988-8.403-5.921-11.869.08-3.467.733-6.309 2.667-8.229 2.609-2.36 7.3-2.68 9.481-2.693zm.48 3.467h-.001a.4.4 0 00.001.799l.143-.001c2.034 0 3.88.809 5.232 2.123l-.002-.002c1.453 1.413 2.161 3.307 2.188 5.787a.4.4 0 00.4.4v-.012a.4.4 0 00.4-.4 8.575 8.575 0 00-2.415-6.349l.002.002c-1.587-1.547-3.589-2.347-5.948-2.347zm-5.272.92a1.263 1.263 0 00-.826.163l.006-.003h-.016c-.547.32-1.051.72-1.531 1.253-.36.427-.561.852-.615 1.265a1.634 1.634 0 00.07.733l-.003-.012.027.013a18.197 18.197 0 001.646 3.549l-.046-.082a20.684 20.684 0 003.101 4.237l-.008-.009.04.053.053.04.08.08a20.864 20.864 0 004.136 3.053l.104.054c1.76.96 2.829 1.413 3.469 1.6v.013c.187.053.357.08.531.08a2.447 2.447 0 001.471-.631l-.002.002a6.03 6.03 0 001.24-1.531v-.013c.307-.573.2-1.121-.24-1.495a18.139 18.139 0 00-2.781-2.007l-.085-.046c-.68-.373-1.373-.147-1.653.227l-.6.759c-.307.373-.867.32-.867.32l-.016.013c-4.16-1.067-5.267-5.279-5.267-5.279s-.053-.573.333-.867l.747-.6c.36-.293.613-.987.227-1.667a18.073 18.073 0 00-2.071-2.887l.017.02a1.127 1.127 0 00-.665-.399l-.007-.001zm5.964 1.187a.401.401 0 00.001.8h.001a5.027 5.027 0 013.532 1.532l.001.001a4.646 4.646 0 011.199 3.44l.001-.014c.001.22.18.399.4.399l.013.016a.4.4 0 00.4-.4v-.001c.04-1.587-.453-2.92-1.427-3.987s-2.333-1.667-4.067-1.787l-.028-.001-.029.001h.001zm.653 2.158H17.1a.407.407 0 00-.012.815h.001c1.32.067 1.96.733 2.04 2.107a.4.4 0 00.4.387h.013a.4.4 0 00.388-.4l-.001-.028v.001c-.093-1.787-1.067-2.788-2.8-2.881h-.016z"/></symbol><symbol id="icon-whatsapp" viewBox="0 0 32 32"><path d="M27.281 4.65C24.287 1.65 20.306 0 16.062 0 7.324 0 .212 7.112.212 15.856c0 2.794.731 5.525 2.119 7.925L.081 32l8.406-2.206a15.858 15.858 0 007.575 1.931h.006c8.738 0 15.856-7.113 15.856-15.856 0-4.238-1.65-8.219-4.644-11.219zm-11.212 24.4a13.17 13.17 0 01-6.713-1.837l-.481-.288-4.987 1.306 1.331-4.863-.313-.5a13.086 13.086 0 01-2.019-7.012c0-7.269 5.912-13.181 13.188-13.181 3.519 0 6.831 1.375 9.319 3.862a13.108 13.108 0 013.856 9.325c-.006 7.275-5.919 13.188-13.181 13.188zm7.225-9.875c-.394-.2-2.344-1.156-2.706-1.288s-.625-.2-.894.2c-.262.394-1.025 1.288-1.256 1.556-.231.262-.462.3-.856.1s-1.675-.619-3.188-1.969c-1.175-1.05-1.975-2.35-2.206-2.744s-.025-.613.175-.806c.181-.175.394-.463.594-.694s.262-.394.394-.662c.131-.262.069-.494-.031-.694s-.894-2.15-1.219-2.944c-.319-.775-.65-.669-.894-.681-.231-.012-.494-.012-.756-.012s-.694.1-1.056.494c-.363.394-1.387 1.356-1.387 3.306s1.419 3.831 1.619 4.1c.2.262 2.794 4.269 6.769 5.981.944.406 1.681.65 2.256.837.95.3 1.813.256 2.494.156.762-.113 2.344-.956 2.675-1.881s.331-1.719.231-1.881c-.094-.175-.356-.275-.756-.475z"/></symbol><symbol id="icon-telegram" viewBox="0 0 32 32"><path d="M16 0C7.162 0 0 7.162 0 16s7.162 16 16 16 16-7.163 16-16S24.837 0 16 0zm7.863 10.969l-2.625 12.369c-.181.881-.712 1.087-1.45.681l-4-2.956-1.919 1.869c-.225.219-.4.4-.8.4-.519 0-.431-.194-.606-.688L11.1 18.169l-3.956-1.231c-.856-.262-.862-.85.194-1.269l15.412-5.95c.7-.319 1.381.169 1.113 1.25z"/></symbol><symbol id="icon-imo" viewBox="0 0 128 128"><path d="M65.05 1.05a63 63 0 00-54.38 94.68c.23.4 2.16 4-1.68 7.84a107.63 107.63 0 01-8.22 7.19 2.06 2.06 0 00-.77 1.46 2 2 0 00.59 1.53c.63.63 3.42 2.69 13 2.69a50.3 50.3 0 0011.38-1.32 14.59 14.59 0 012.76-.44A63 63 0 1065.05 1.05zm0 121.9A58.54 58.54 0 0130 111.4a3.79 3.79 0 00-2.38-.72 17.73 17.73 0 00-3.51.53 46.27 46.27 0 01-10.54 1.23 35.84 35.84 0 01-7.67-.68c1.72-1.44 4-3.42 5.93-5.36 4.84-4.85 3.73-10.26 2.3-12.69A59 59 0 1165.05 123z"/><path d="M32 54a2 2 0 00-2 2v22a2 2 0 004 0V56a2 2 0 00-2-2zm36 0a10.53 10.53 0 00-8 3.24A9.19 9.19 0 0053 54a11.59 11.59 0 00-6 1.6 2 2 0 00-4 .4v22a2 2 0 004 0V63c0-4.51 4.2-5 6-5a4.82 4.82 0 015 5v15a2 2 0 004 0V63c0-4.51 4.2-5 6-5a4.82 4.82 0 015 5v15a2 2 0 004 0V63a8.81 8.81 0 00-9-9zm25.5 0C86.73 54 82 59.35 82 67s4.73 13 11.5 13S105 74.78 105 67s-4.73-13-11.5-13zm0 22c-4.56 0-7.5-3.53-7.5-9s2.94-9 7.5-9 7.5 3.53 7.5 9-2.87 9-7.5 9z"/><circle cx="32" cy="49" r="2"/></symbol><symbol id="icon-rutube" viewBox="0 0 512 512" fill="none"><g clip-path="url(#clip0_923_32857)"><rect width="511.998" height="511.998" rx="108.623" fill="#163E73"/><g filter="url(#filter0_d_923_32857)"><circle cx="419.52" cy="110" r="32.348" fill="#F41240"/></g><g filter="url(#filter1_d_923_32857)"><path d="M323.396 138.772H96.054V391.5h63.277v-82.222H280.58L335.9 391.5h70.855l-61.004-82.601c18.945-3.031 32.586-10.23 40.922-21.597 8.336-11.367 12.504-29.555 12.504-53.804v-18.946c0-14.398-1.516-25.765-4.168-34.48-2.653-8.714-7.2-16.293-13.641-23.113-6.82-6.441-14.398-10.988-23.492-14.019-9.094-2.653-20.461-4.168-34.48-4.168zm-10.23 114.807H159.331v-59.108h153.835c8.714 0 14.777 1.515 17.808 4.168 3.031 2.652 4.926 7.578 4.926 14.777v21.218c0 7.578-1.895 12.504-4.926 15.156-3.031 2.653-9.094 3.789-17.808 3.789z" fill="#fff"/></g><g filter="url(#filter2_f_923_32857)"><rect x="13.859" y="12.945" width="484.045" height="485.344" rx="96.909" stroke="#000" stroke-opacity=".65" stroke-width="6.39"/></g></g><rect x="6.967" y="6.967" width="498.064" height="498.064" rx="101.656" stroke="#fff" stroke-width="13.934"/><defs><filter id="filter0_d_923_32857" x="378.652" y="77.652" width="81.734" height="81.734" filterUnits="userSpaceOnUse" color-interpolation-filters="sRGB"><feFlood flood-opacity="0" result="BackgroundImageFix"/><feColorMatrix in="SourceAlpha" values="0 0 0 0 0 0 0 0 0 0 0 0 0 0 0 0 0 0 127 0" result="hardAlpha"/><feOffset dy="8.519"/><feGaussianBlur stdDeviation="4.26"/><feComposite in2="hardAlpha" operator="out"/><feColorMatrix values="0 0 0 0 0 0 0 0 0 0 0 0 0 0 0 0 0 0 0.5 0"/><feBlend in2="BackgroundImageFix" result="effect1_dropShadow_923_32857"/><feBlend in="SourceGraphic" in2="effect1_dropShadow_923_32857" result="shape"/></filter><filter id="filter1_d_923_32857" x="87.535" y="138.771" width="327.742" height="269.767" filterUnits="userSpaceOnUse" color-interpolation-filters="sRGB"><feFlood flood-opacity="0" result="BackgroundImageFix"/><feColorMatrix in="SourceAlpha" values="0 0 0 0 0 0 0 0 0 0 0 0 0 0 0 0 0 0 127 0" result="hardAlpha"/><feOffset dy="8.519"/><feGaussianBlur stdDeviation="4.26"/><feComposite in2="hardAlpha" operator="out"/><feColorMatrix values="0 0 0 0 0 0 0 0 0 0 0 0 0 0 0 0 0 0 0.5 0"/><feBlend in2="BackgroundImageFix" result="effect1_dropShadow_923_32857"/><feBlend in="SourceGraphic" in2="effect1_dropShadow_923_32857" result="shape"/></filter><filter id="filter2_f_923_32857" x="-6.375" y="-7.289" width="524.515" height="525.812" filterUnits="userSpaceOnUse" color-interpolation-filters="sRGB"><feFlood flood-opacity="0" result="BackgroundImageFix"/><feBlend in="SourceGraphic" in2="BackgroundImageFix" result="shape"/><feGaussianBlur stdDeviation="8.519" result="effect1_foregroundBlur_923_32857"/></filter><clipPath id="clip0_923_32857"><rect width="511.998" height="511.998" rx="108.623" fill="#fff"/></clipPath></defs></symbol></defs></svg>